<svg xmlns="http://www.w3.org/2000/svg" xmlns:xlink="http://www.w3.org/1999/xlink" version="1.1" width="1080" height="800" viewBox="0 0 1080 800">
<defs>
<clipPath id="clip_0">
<path transform="matrix(1,0,0,-1,0,800)" d="M0 800H1080V0H0Z"/>
</clipPath>
</defs>
<g id="layer_1" data-name="Layer 1">
<g clip-path="url(#clip_0)">
<path transform="matrix(1,0,0,-1,662.2852,190.34381)" d="M0 0C29.094-13.546 58.218-30.294 81.4-52.707 115.459-83.439 142.092-121.505 159.291-164.032 171.554-195.758 178.994-229.143 181.365-263.073V-294.969C177.979-335.484 169.266-374.829 151.04-411.373 113.419-490.157 40.208-551.73-44.487-573.312-67.361-580.301-90.883-582.548-114.65-583.656H-132.66C-268.578-578.33-384.583-483.741-417.161-351.678-421.53-332.86-424.463-313.738-425.936-294.476V-262.458C-423.657-239.706-420.917-217.293-414.329-195.219-387.052-97.225-308.145-15.763-210.212 12.838-141.835 34.296-65.36 29.001 0 0" fill="#aa975e"/>
<path transform="matrix(1,0,0,-1,592.6758,191.66803)" d="M0 0V-99.133H-105.567V.092C-70.698 6.834-34.857 6.803 0 0" fill="#ee352a"/>
<path transform="matrix(1,0,0,-1,476.3638,193.73053)" d="M0 0C.164-32.306 .164-64.611 0-96.917H-105.26C-105.445-80.938-105.26-64.991-105.26-49.013-73.856-25.713-38.044-9.039 0 0" fill="#ffffff"/>
<path transform="matrix(1,0,0,-1,603.4512,193.73053)" d="M0 0C38.115-9.02 73.966-25.788 105.322-49.259 105.322-65.145 105.322-81 105.138-96.855H0C-.185-64.611-.185-32.326 0 0" fill="#ffffff"/>
<path transform="matrix(1,0,0,-1,360.5747,250.93262)" d="M0 0C.164-13.259 .164-26.548 0-39.869H-39.808C-27.786-25.389-14.461-12.043 0 0" fill="#ee352a"/>
<path transform="matrix(1,0,0,-1,719.2402,250.80908)" d="M0 0 6.158-5.48C9.771-8.785 13.321-12.13 16.811-15.517 11.207-21.182 5.573-26.877-.092-32.48-.185-21.674-.185-10.837 0 0" fill="#ee352a"/>
<path transform="matrix(1,0,0,-1,743.6543,273.96089)" d="M0 0C45.673-47.061 73.437-108.621 78.476-174.007 81.555-201.038 78.476-228.931 73.304-255.53 60.821-313.933 30.262-366.919-14.038-406.971V-354.448H-37.652V-88.143H-87.681C-58.956-58.433-29.401-29.248 0 0" fill="#00509f"/>
<path transform="matrix(1,0,0,-1,315.2563,301.6382)" d="M0 0C15.116 .554 30.325 0 45.472 0V-105.199H-51.476C-42.948-69.464-27.807-35.643-6.834-5.48-4.957-3.417-3.387 .4 0 0" fill="#ffffff"/>
<path transform="matrix(1,0,0,-1,371.2266,301.6997)" d="M0 0C35.005 .677 70.225 0 105.229 .246V-105.322H-.246C-.123-70.286-.554-35.128 0 0" fill="#ee352a"/>
<path transform="matrix(1,0,0,-1,487.3853,301.8228)" d="M0 0C34.974 .8 70.194 0 105.229 .308V-105.044H-.062C-.215-70.102-.616-35.005 0 0" fill="#ffffff"/>
<path transform="matrix(1,0,0,-1,603.2363,301.4536)" d="M0 0H97.748C77.645-20.258 57.448-40.331 37.375-60.619H.03C-.093-40.454-.031-20.227 0 0" fill="#ee352a"/>
<path transform="matrix(1,0,0,-1,695.5039,372.54)" d="M0 0C-.185-88.728 .246-177.455-.216-266.183 7.697-266.521 15.609-266.583 23.552-266.553V-300.664H-32.356L-35.436-294.66C-45.864-302.473-57.758-308.105-70.409-311.224-106.399-320.275-146.791-302.173-165.109-270.093-178.829-247.195-181.292-219.271-171.79-194.326-160.234-164.432-133.513-143.047-101.812-138.325-77.183-134.477-54.092-142.266-34.081-156.336-33.927-115.574-34.081-74.781-34.081-34.02H-92.206C-92.206-22.69-92.391-11.36-92.206 0-61.45 .031-30.725-.031 0 0" fill="#ffffff"/>
<path transform="matrix(1,0,0,-1,360.7285,417.5811)" d="M0 0V-105.784H-99.164C-105.876-70.815-105.813-34.884-98.979 .062-66.068 .246-33.157 .185 0 0" fill="#ee352a"/>
<path transform="matrix(1,0,0,-1,371.2573,417.8271)" d="M0 0C35.005 .677 70.194 .185 105.229 .185V-105.384C70.04-105.63 34.851-105.384-.338-105.384 .031-70.379-.584-35.066 0 0" fill="#ffffff"/>
<path transform="matrix(1,0,0,-1,487.2622,417.7354)" d="M0 0C32.603 .708 65.422 0 98.025 .246 65.186-32.593 32.439-65.432-.215-98.271-.062-65.545-.616-32.665 0 0" fill="#ee352a"/>
<path transform="matrix(1,0,0,-1,604.3447,417.1191)" d="M0 0C15.608 .308 31.218 0 46.796 0V-92.977C34.618-87.074 21.437-83.522 7.942-82.509-27.921-80.47-62.08-97.997-81.339-128.319-110.359-174.344-96.575-235.18-50.551-264.2-26.216-279.544 3.609-283.485 31.095-274.988 40.607-272.125 48.304-265.998 57.972-266.43 79.521-266.43 100.857-266.43 122.315-266.645 11.886-364.365-155.232-360.336-260.826-257.409-176.306-173.258-92.012-88.871-7.943-4.249-5.449-2.032-3.787 .246 0 0" fill="#00509f"/>
<path transform="matrix(1,0,0,-1,263.627,533.8633)" d="M0 0C31.957 .308 63.914-.339 95.809 .37 96.494-4.407 96.936-9.217 97.132-14.038 96.824-44.425 97.132-74.873 97.132-105.291 81.092-105.537 65.083-105.291 49.074-105.476 25.694-74.031 8.994-38.137 0 0" fill="#ffffff"/>
<path transform="matrix(1,0,0,-1,370.9805,533.8633)" d="M0 0H97.963C65.483-32.941 32.634-65.575 0-98.518-.082-65.679-.082-32.839 0 0" fill="#ee352a"/>
<path transform="matrix(1,0,0,-1,589.2588,543.09866)" d="M0 0C10.838 3.078 22.319 3.078 33.157 0 54.174-6.844 69.538-24.947 72.872-46.796 78.414-79.369 51.075-112.465 17.825-111.91-11.545-113.758-38.391-89.005-40.669-60.034-42.647-33.021-25.821-8.183 0 0" fill="#aa975e"/>
<path transform="matrix(1,0,0,-1,597.6943,552.335)" d="M0 0C23.136 3.992 45.606-9.927 52.338-32.419 55.416-46.734 54.646-61.728 45.318-73.673 29.968-94.317 .789-98.608-19.855-83.259-34.759-72.177-41.656-53.3-37.406-35.22-33.059-17.082-18.367-3.249 0 0" fill="#00509f"/>
<path transform="matrix(1,0,0,-1,320.7671,650.14456)" d="M0 0H32.019C26.6-5.942 20.997-11.638 15.301-17.241 10.037-11.606 4.957-5.881 0 0" fill="#ee352a"/>
<path transform="matrix(1,0,0,-1,555.9687,59.82617)" d="M0 0-16.784 33.826-33.423-.072-70.781-5.582-43.684-31.882-49.987-69.114-16.601-51.47 16.86-68.97 10.397-31.766 37.381-5.35Z" fill="#aa975e"/>
<path transform="matrix(1,0,0,-1,402.3452,87.5542)" d="M0 0-16.785 33.826-33.424-.072-70.781-5.582-43.684-31.882-49.988-69.114-16.602-51.47 16.86-68.97 10.396-31.766 37.381-5.35Z" fill="#aa975e"/>
<path transform="matrix(1,0,0,-1,746.3848,92.9043)" d="M0 0-37.381 5.35-54.166 39.176-70.805 5.278-108.162-.232-81.065-26.532-87.369-63.764-53.982-46.12-20.521-63.62-26.984-26.416Z" fill="#aa975e"/>
</g>
</g>
</svg>
