<?xml version="1.0" encoding="UTF-8"?>
<!DOCTYPE svg PUBLIC "-//W3C//DTD SVG 1.1//EN" "http://www.w3.org/Graphics/SVG/1.1/DTD/svg11.dtd">
<!-- Creator: CorelDRAW -->
<svg xmlns="http://www.w3.org/2000/svg" xml:space="preserve" width="500px" height="464px" shape-rendering="geometricPrecision" text-rendering="geometricPrecision" image-rendering="optimizeQuality" fill-rule="evenodd" clip-rule="evenodd"
viewBox="0 0 481.63 447.174"
 xmlns:xlink="http://www.w3.org/1999/xlink">
 <g id="Ebene_x0020_1">
  <metadata id="CorelCorpID_0Corel-Layer"/>
  <path fill="#272060" d="M260.126 0c-119.338,0 -216.632,95.2636 -221.324,214.564 -20.2311,-0.000349267 -37.8943,0 -37.8943,0 0,-0.000349267 38.9063,65.5449 46.3867,77.2489 -7.40115,11.7328 -47.2946,77.0636 -47.2946,77.0636 0,0 71.6517,0 91.7623,0 3.84421,4.53262 7.86323,8.91121 12.0497,13.1209 14.3235,22.1504 40.0765,61.8429 40.0765,61.8429 0,0 5.80517,-9.72325 13.2959,-22.2296 30.7568,16.3242 65.7801,25.5634 102.942,25.5634 122.333,0 221.504,-100.104 221.504,-223.588 0,-123.483 -99.171,-223.586 -221.504,-223.586z"/>
  <path fill="#F6CA00" d="M239.439 186.331c0.0263697,-0.00279414 -0.0253219,-0.456143 0,-0.487053 0.0834749,-0.102859 0.82462,0.020956 0.973234,0 2.55908,-0.365858 5.31725,0.00995412 7.30196,-0.486879 3.77488,-0.94407 9.57586,-1.01515 13.63,-1.46029 0.493515,-0.0543111 0.564416,-0.390656 0.973757,-0.486879 0.609122,-0.143025 1.32547,0.0780613 1.94717,0 7.40866,-0.923288 14.7897,-1.64907 21.9052,-2.4337 4.52598,-7.61595 9.66458,-15.4729 14.1169,-22.3921 0.812047,-1.26313 1.35725,-2.45937 1.94717,-3.40745 0.228246,-0.367429 0.943022,-0.883472 0.973408,-1.46064 0.0279414,-0.552017 0.344902,-0.230691 0.486879,-0.486529 0.599692,-1.07836 0.938656,-1.75245 1.46029,-2.43404 0.232612,-0.303164 0.955596,-1.10438 0.973757,-1.46029 0.0363238,-0.695566 0.727349,-1.53678 0.973408,-1.94717 0.172713,-0.287971 0.776247,-0.656448 0.973757,-0.973408 0.286225,-0.462081 0.425408,-0.798425 0.486529,-1.46081 -0.275223,-1.47688 -1.63422,-2.38794 -2.4337,-3.40745 -0.374065,-0.477099 -0.510629,-0.593755 -0.973757,-0.973408 -0.163981,-0.133595 0.133595,-0.803839 0,-0.973757 -0.571751,-0.722983 -1.90979,-1.21947 -1.94717,-1.94751 -0.0303863,-0.56232 -0.311547,-0.216546 -0.486529,-0.48618 -0.995936,-1.53835 -1.92516,-2.59209 -2.92092,-3.4078 -0.161362,-0.131674 0.125212,-0.799124 0,-0.973932 -0.155773,-0.212355 -0.783057,-0.280986 -0.973408,-0.486006 -0.346299,-0.372144 -0.151931,-1.05269 -0.487053,-1.46064 -0.827414,-1.00816 -2.02208,-1.91329 -2.92057,-2.9211 -3.11127,-3.48866 -5.74405,-6.96439 -8.76207,-10.222 -0.180921,-0.602486 -0.994713,-0.663608 -1.46029,-0.973757 -1.25335,-0.834574 -3.22252,-0.886615 -4.86826,-0.973757 -0.33617,-0.0169395 -0.504517,-0.488625 -0.486355,-0.48618 -3.96104,-0.407595 -8.77202,0 -13.6303,0 -5.91659,0 -12.064,0.108448 -15.0903,0.48618 -2.59925,0.324469 -5.34204,0.424534 -8.27519,0.973757 -1.60506,0.300719 -3.29237,0.890108 -4.86826,0.973757 -0.453,0.0235755 -0.351712,0.448983 -0.486529,0.486529 -4.37527,1.22051 -9.04044,1.91556 -12.6564,3.40745 -0.294956,0.12137 -0.72473,0.474305 -0.973408,0.486879 -0.536999,0.0279414 -0.247631,0.370223 -0.486879,0.487228 -0.635667,0.308752 -1.41471,0.0726476 -1.94734,0.48618 -0.747083,0.579958 -2.41972,3.13537 -2.43404,3.4078 -0.0291638,0.56232 -0.312594,0.217244 -0.486529,0.487053 -0.677229,1.04553 -0.723333,1.34311 -1.46064,1.94664 -0.155249,0.127832 0.112813,0.79598 0,0.973932 -0.319754,0.501723 -1.12639,0.937783 -1.46029,1.46029 -0.0527394,0.0812047 0.00558828,0.387163 0,0.486879 -0.0291638,0.563019 -0.716347,1.00572 -0.973408,1.45976 -2.22937,3.95126 -3.95144,7.62363 -5.8415,11.1966 -1.35184,2.55646 -2.9679,5.01653 -3.89433,7.78849 0.0235755,1.02231 0.836146,1.71054 1.46064,2.43404 0.561797,0.65086 1.35848,1.28094 1.94682,1.94717 4.09621,4.6505 7.51309,8.50903 11.683,13.1431 0.796854,0.885742 2.3951,2.23374 2.92075,2.92092 0.280986,0.36708 0.166601,1.10159 0.486879,1.46029 1.00292,1.12639 2.21558,2.05561 2.92057,2.92057 1.26976,1.55616 2.90835,3.17257 3.89433,4.38121 0.852736,1.04553 2.16406,2.73843 2.92057,3.40763 1.87941,1.66321 3.32974,1.79261 6.32855,1.46029zm115.699 -55.8784c-0.913858,-0.910191 -1.84029,-1.80082 -2.77196,-2.68115 -0.112813,8.04607 -0.747083,15.5719 -1.45365,23.0241 0.772056,0.551842 1.00694,1.58952 1.46029,2.43404 0.592532,1.10107 0.810999,1.41576 1.46029,1.94717 0.150709,0.122244 -0.100065,0.795282 0,0.973408 0.157345,0.279589 0.799997,0.652431 0.973757,0.973408 0.28116,0.521631 0.248853,1.04047 0.487053,1.46064 0.158393,0.280811 0.806633,0.646669 0.973408,0.973408 0.346473,0.677404 0.121021,1.30451 0.486879,1.94717 0.174983,0.308752 0.733985,0.560749 0.973408,0.973408 0.274,0.474305 0.179349,0.93918 0.486879,1.46064 0.166775,0.280811 0.769087,0.668672 0.973408,0.973408 0.112639,0.169569 0.479719,0.824795 0.486879,0.973408 0.0389433,0.721936 0.732763,1.4994 0.973757,1.94717 0.84837,1.57031 1.6798,2.91953 2.4337,4.38138 0.254616,0.493515 0.190351,0.911064 0.486879,1.46029 0.147391,0.272429 0.810475,0.655226 0.973408,0.973408 0.256188,0.503469 0.303164,1.06404 0.486879,1.46064 0.122593,0.265269 0.474305,0.746734 0.486879,0.973408 0.0275921,0.539793 0.362714,0.243265 0.486879,0.486879 0.478322,0.949833 0.564591,2.06941 0.973408,2.92057 0.122593,0.254791 0.820429,0.673388 0.973408,0.973757 0.352062,0.686834 0.173935,1.2612 0.486879,1.94682 0.111242,0.246408 0.363063,-0.00663608 0.486879,0.486879 0.0721237,0.286749 -0.115433,0.703774 0,0.973932 0.101811,0.237676 0.849593,0.678452 0.973408,0.973234 0.414755,0.990522 0.578736,2.35336 0.973757,3.40763 0.798425,2.1321 1.87347,4.09027 2.4337,6.32803 0.570528,2.28107 0.514995,4.91541 0.973932,7.30178 0.00698535,0.0403404 0.404452,0.160139 0.486355,0.486879 0.0770135,0.305958 -0.0665354,0.66483 0,0.973408 0.438505,2.03082 1.02231,3.73192 0.973932,5.84167 1.62305,0.638286 2.48958,1.41576 3.40745,1.94717 1.06404,0.616108 1.69796,1.03488 2.43404,1.46029 1.06527,0.61733 1.75245,0.938656 2.4337,1.46029 0.303164,0.232263 1.10421,0.955596 1.46029,0.973757 0.710759,0.0375462 1.51477,0.730143 1.94717,0.973408 0.28116,0.158567 0.65086,0.799997 0.973757,0.973757 0.532633,0.286225 1.03174,0.227897 1.46029,0.486529 0.289368,0.173935 0.64108,0.794409 0.973408,0.973757 0.53857,0.289019 1.02947,0.219689 1.46029,0.486879 0.292162,0.180571 0.649812,0.772056 0.973757,0.973408 0.278366,0.172363 0.511851,0.292162 0.799648,0.372668 -0.815015,-34.3571 -14.5648,-66.4977 -38.9245,-90.8127zm-43.6551 190.718c0.115608,-0.143549 0.796854,0.0834749 0.973408,0 0.0611218,-0.0291638 -0.0473257,-0.431345 0,-0.486879 0.121021,-0.147565 0.795631,0.0960485 0.973408,0 0.0654876,-0.0347521 -0.0511677,-0.42436 0,-0.485482 0.132547,-0.162759 0.801219,0.128181 0.973757,0 0.354856,-0.26684 0.348918,-0.94145 0.973408,-0.97498 0.534204,-0.0279414 0.251996,-0.375637 0.486879,-0.486879 0.709362,-0.336694 1.2502,-0.172189 1.94734,-0.486355 0.358698,-0.162933 0.350315,-0.940402 0.973234,-0.973932 0.56232,-0.0291638 0.217244,-0.312944 0.487053,-0.486879 1.00676,-0.652082 2.1431,-0.902332 2.92057,-1.45872 0.617679,-0.445141 1.00135,-1.13617 1.46064,-1.46186 0.152979,-0.110019 0.838591,-0.479719 0.973408,-0.486879 0.894474,-0.0473257 1.13232,-1.05811 1.46029,-1.46029 0.132372,-0.162759 0.801045,0.130975 0.973757,0 0.475528,-0.364286 0.94861,-1.03174 1.46029,-1.45872 1.10438,-0.928003 2.02924,-1.76223 2.92057,-2.43404 0.548001,-0.415977 0.866532,-0.979346 1.46029,-1.46186 1.096,-0.888711 2.37973,-1.48526 3.40745,-2.4337 1.84431,-1.70285 3.44657,-3.89608 5.35479,-5.84045 0.871946,-0.89133 2.04339,-1.45313 2.92092,-2.4337 0.546429,-0.613488 0.401657,-1.23518 0.973408,-1.94874 0.575942,-0.71757 1.64959,-1.47845 1.94717,-1.94682 0.669022,-1.05182 1.35027,-1.62025 1.94717,-2.43404 0.36708,-0.502246 0.501897,-0.588166 0.973408,-0.972186 0.158917,-0.130975 -0.121021,-0.799648 0,-0.97498 0.451079,-0.660814 1.07243,-0.909492 1.46064,-1.45906 0.364286,-0.517265 0.499103,-0.586769 0.973408,-0.97498 0.158567,-0.129404 -0.121021,-0.798425 0,-0.973408 0.247631,-0.361666 0.940402,-0.345076 0.973408,-0.973408 0.0296877,-0.556732 0.33128,-0.222833 0.486879,-0.486879 0.64824,-1.08936 1.40633,-2.36314 1.46029,-3.40763 0.0225277,-0.438331 0.457715,-0.371271 0.487053,-0.485307 0.147391,-0.583102 -0.031958,-1.34782 0,-1.94874 0.0153678,-0.298798 0.490721,-0.553414 0.486879,-0.485307 0.0611218,-1.15433 -0.385242,-2.24474 -0.486879,-3.40902 -0.114036,-1.28757 0.0736954,-2.60484 0,-3.89276 -0.421566,-7.36849 -0.922241,-16.1016 -0.973408,-22.8802 -9.63314,-1.90141 -19.5771,-3.90987 -28.7206,-5.84167 -0.988776,-0.208513 -1.86631,-0.268412 -2.92057,-0.485307 -0.0347521,-0.00855705 0.0303863,-0.452127 0,-0.48845 -0.0902856,-0.109495 -0.819207,0.0323072 -0.973757,0 -1.88028,-0.375288 -2.58825,-0.593755 -4.38086,-0.973408 -3.26286,-0.692597 -5.91816,-0.869327 -8.76225,-1.94717 -4.98335,3.34476 -10.1377,8.52719 -14.6037,12.1697 -1.76502,1.43933 -3.86517,3.91791 -5.35462,4.86774 -2.04304,1.30172 -3.46578,3.13223 -5.35462,4.86809 -1.47024,1.35044 -3.18357,2.69547 -4.86774,4.38086 -2.10294,2.10416 -7.82743,7.32711 -8.27537,9.736 -0.175332,0.938656 0.408817,1.41576 0.486529,1.94717 0.453698,3.09451 0.221261,5.8649 0.486879,8.27537 0.00279414,0.0263697 0.456143,-0.0253219 0.486879,0 0.502246,0.411612 -0.0110019,4.17113 0,4.38086 0.0181619,0.336694 0.489673,0.503469 0.486879,0.486879 0.195939,1.87626 0.303164,3.71062 0.486529,5.35462 0.799997,7.21272 1.40755,13.9958 1.94717,21.4186 0.576117,0.235057 1.10438,0.520059 1.46029,0.97498 5.53449,0.764896 10.6357,2.21139 16.064,3.40588 1.5621,0.343854 2.18659,0.423137 3.40745,0.486879 0.412136,0.020956 0.404976,0.468891 0.486879,0.487053 1.41191,0.297576 2.93612,0.176555 4.38104,0.487927 0.0389433,0.00838242 -0.0359745,0.449158 0,0.485482 0.246408,0.245884 1.58131,-0.0805061 1.94717,0 0.040515,0.00820778 -0.0359745,0.450555 0,0.486879 0.246408,0.247456 1.58288,-0.0820778 1.94717,0 2.6691,0.596374 4.99976,1.62305 6.32838,0zm-43.8107 -28.7206c-0.100065,-0.463303 0.0651384,-0.990348 0,-1.45872 -0.414755,-3.00737 -0.612266,-5.19221 -0.973757,-8.27676 -0.414406,-3.53686 -0.660814,-7.26179 -1.46029,-10.7094 -0.783057,-0.95123 -1.93337,-1.35062 -2.92057,-1.94717 -0.868104,-0.524425 -1.74022,-1.42396 -2.43422,-1.46029 -0.560225,-0.0291638 -0.221086,-0.32412 -0.486879,-0.486879 -1.99833,-1.2254 -4.03194,-2.59541 -6.32803,-3.40745 -0.0819032,-0.286749 -0.274,-0.463303 -0.606328,-0.496484 -7.3795,12.0026 -14.0072,22.73 -16.7023,26.9484 0.809427,1.26994 2.02086,3.17257 3.53686,5.55213 0.0571052,0.0513423 0.105653,0.0946515 0.141977,0.123815 0.0389433,0.0303863 0.0499452,0.0946515 0.0483735,0.175158 1.21318,1.90263 2.612,4.09743 4.14912,6.51052 0.077712,0.038594 0.144247,0.0792837 0.183365,0.129404 0.0960485,0.127657 0.158393,0.30037 0.205718,0.484085 1.44806,2.26971 3.00964,4.72314 4.65364,7.30143 0.0015717,0.0015717 0.00715998,0.0015717 0.00838242,0.00279414 0.0181619,0.0169395 0.0307355,0.040515 0.0389433,0.0736954 2.42706,3.80806 5.02666,7.88733 7.67882,12.0518 0.024798,0.0122244 0.045754,0.031958 0.0709013,0.0441823 0.916652,-0.934465 2.22518,-1.35044 3.40745,-1.94682 1.29089,-0.652606 2.62859,-1.24514 3.89451,-1.94717 0.0665354,-0.0378955 -0.052914,-0.423137 0,-0.487053 0.115433,-0.141803 0.795631,0.0836495 0.973408,0 0.0598994,-0.0291638 -0.0473257,-0.429599 0,-0.486879 0.122593,-0.151407 0.795456,0.101811 0.973757,0 0.0677579,-0.0373716 -0.052914,-0.421391 0,-0.486355 0.132023,-0.161711 0.801045,0.129229 0.973408,0 0.737129,-0.553938 1.0389,-1.41191 1.94717,-1.46081 0.56494,-0.0303863 0.215673,-0.304387 0.486879,-0.486529 0.437981,-0.293559 1.83278,-0.383845 1.46029,-1.46064 -1.31552,-6.95968 -1.56594,-16.161 -2.92057,-22.3921zm-102.225 -131.432c-0.574545,-1.6578 -1.87085,-3.90813 -1.94734,-5.35462 -0.024798,-0.482513 -0.429599,-0.315388 -0.486879,-0.486529 -0.463129,-1.39096 -0.135865,-1.76223 -0.486355,-2.92092 -0.0557081,-0.183715 -0.886266,-0.720364 -0.973932,-0.973408 -0.495087,-1.43112 -0.447761,-2.49097 -0.973408,-2.9211 -0.132372,-0.106701 0.0639159,-0.802267 0,-0.973234 -0.219864,-0.58153 -0.53141,-1.0988 -0.973757,-1.46046 -0.565639,-0.463129 -0.0192097,-2.10992 -0.486879,-2.43404 -0.0275921,-0.297576 -0.0736954,-0.577164 -0.486529,-0.486879 -3.14882,3.99178 -5.61482,8.66515 -8.76207,12.6566 0.0181619,0.0681071 0.0401657,0.137961 0.0611218,0.20729 0.793885,1.2254 1.62147,2.50075 2.47543,3.81802 0.143549,0.143025 0.275572,0.26684 0.384019,0.355903 0.0555335,0.045754 0.0555335,0.161362 0.0389433,0.29775 0.682818,1.05252 1.38118,2.12931 2.09316,3.2281 0.308578,0.378082 0.594104,0.695391 0.788471,0.855007 0.0709013,0.0572798 0.0543111,0.221261 0.0251473,0.399387 0.552366,0.852387 1.11154,1.71455 1.67718,2.58825 0.470289,0.630078 0.911064,1.14333 1.21859,1.39375 0.0836495,0.0677579 0.045754,0.285002 0.00838242,0.499103 0.286574,0.440775 0.572798,0.883123 0.860944,1.32704 0.0347521,0.0401657 0.0736954,0.0775374 0.104082,0.121021 0.0962232,0.13604 0.189303,0.303164 0.285002,0.480941 0.224055,0.34333 0.446713,0.688755 0.670768,1.03331 0.255838,0.274 0.571576,0.457715 0.991395,0.432917 1.17808,-3.52743 3.55781,-5.85267 4.86791,-9.24912 -0.821652,-0.534204 -0.653829,-1.51023 -0.973408,-2.43404zm218.08 113.421c-6.95025,1.64959 -13.5774,3.62313 -20.9321,4.86809 -0.490895,0.889933 -1.25579,1.78004 -1.46029,1.94839 -0.141628,0.115608 0.0834749,0.795631 0,0.97236 -0.0275921,0.0598994 -0.429774,-0.0473257 -0.486529,0 -0.152979,0.123641 0.104082,0.795456 0,0.973757 -0.0406896,0.0693296 -0.421391,-0.0544857 -0.486879,0 -0.161362,0.132023 0.129229,0.801045 0,0.973408 -0.265792,0.353109 -0.941974,0.348918 -0.973757,0.973408 -0.0303863,0.55062 -0.343504,0.23104 -0.486529,0.486879 -0.249202,0.446189 -0.178301,0.988776 -0.486879,1.46029 -0.39083,0.596898 -1.0712,0.877534 -1.46029,1.46186 -0.434139,0.646494 -0.481465,1.26155 -0.973932,1.94559 -0.430821,0.596898 -1.04588,0.941799 -1.46029,1.46064 -0.506088,0.63392 -0.969392,1.33385 -1.46029,1.94682 -0.866532,1.0822 -1.5841,2.46216 -2.43404,3.40745 -1.21545,1.348 -3.29464,3.0058 -4.38086,3.89433 -0.163981,0.133769 0.133595,0.802791 0,0.973932 -0.460509,0.582578 -1.43933,0.909492 -1.94717,1.46029 -0.888711,0.965026 -2.49517,3.35856 -3.40745,3.40745 -0.561797,0.0291638 -0.216895,0.311372 -0.486879,0.486879 -1.60506,1.0389 -2.71922,2.42426 -3.89451,3.40745 -0.672864,0.563019 -1.28076,0.902507 -1.94717,1.46029 -1.1428,0.960835 -1.99135,2.18764 -2.92057,2.92215 -0.517265,0.408817 -1.34468,0.518837 -1.94717,0.972186 -0.217943,0.164156 -0.275223,0.775897 -0.486529,0.973408 -0.385067,0.358872 -1.01829,0.154551 -1.46064,0.488101 -0.546429,0.408817 -0.906698,1.05147 -1.46029,1.45906 -0.501897,0.368652 -0.588166,0.503469 -0.973408,0.97498 -0.130975,0.156996 -0.797203,-0.122593 -0.973757,0 -0.663084,0.454571 -0.891505,1.08902 -1.46029,1.45924 -0.944244,0.612964 -1.62165,0.495087 -2.4337,0.97498 -0.197511,0.113861 -0.279938,0.817635 -0.486879,0.971836 -0.130975,0.097271 -1.46465,0.486879 -1.46029,0.486879 -0.735732,0.0389433 -1.48002,0.735557 -1.94734,0.97498 -1.41715,0.720189 -2.81213,1.59668 -4.38121,1.94594 -1.44212,7.64372 -4.01221,14.1626 -5.35462,21.9052 1.52298,-0.031958 1.42431,-0.34071 2.55227,-0.457715 0.247631,-0.0946515 0.492467,-0.190351 0.735732,-0.286225 0.0363238,-0.104431 0.0445316,-0.205718 0.119449,-0.229469 0.92259,-0.293734 1.97249,-0.669022 2.85282,-0.970963 1.80135,-0.753894 3.5868,-1.54673 5.35305,-2.37973 0.0153678,-0.0225277 0.0373716,-0.0417375 0.0698535,-0.0555335 0.0918573,-0.045754 0.180571,-0.0808554 0.269634,-0.108448 0.822001,-0.392227 1.63841,-0.790043 2.45186,-1.19886 0.0684564,-0.0667101 0.136389,-0.122244 0.199082,-0.154551 0.128006,-0.0667101 0.254616,-0.106876 0.378431,-0.140405 1.97912,-1.00572 3.93293,-2.06539 5.8621,-3.17362 0.0181619,-0.0324819 0.0433092,-0.0642652 0.0874915,-0.092032 0.25741,-0.165553 0.485656,-0.280986 0.705345,-0.368477 0.671816,-0.392402 1.34189,-0.788471 2.00706,-1.19467 0.0667101,-0.175332 0.134817,-0.336694 0.208513,-0.385591 0.105653,-0.0709013 0.274,-0.0483735 0.447935,-0.017638 0.255838,-0.158917 0.514471,-0.315912 0.768737,-0.474305 0.0768388,-0.212878 0.157345,-0.422963 0.243614,-0.481465 0.293385,-0.197511 0.699408,-0.251822 1.04606,-0.336694 0.232088,-0.150185 0.463129,-0.301592 0.69382,-0.451777 0.0614711,-0.0681071 0.126609,-0.133595 0.20729,-0.184937 0.90565,-0.577514 0.993142,-0.890108 1.46029,-1.46064 0.0962232,-0.118227 0.492467,0.00593755 0.761054,0.0279414 0.119449,-0.0819032 0.238899,-0.165553 0.358698,-0.247456 0.122244,-0.253219 0.246059,-0.638286 0.340536,-0.753894 0.0936037,-0.113861 0.455095,-0.00279414 0.720713,0.024798 0.336344,-0.234882 0.668672,-0.478147 1.00414,-0.718618 0.548001,-0.583102 1.0609,-1.25492 1.68277,-1.74022 0.966597,-0.752147 2.0027,-1.20008 2.92092,-1.94717 0.35049,-0.285002 0.565813,-0.668672 0.973408,-0.973408 1.54935,-1.15992 2.54913,-2.19759 3.89433,-3.40745 1.38257,-1.24514 2.73965,-2.54651 3.89433,-3.40745 2.29608,-1.71351 3.89398,-3.85539 5.84132,-5.8401 0.543635,-0.556208 1.27256,-0.97498 1.87347,-1.43968 0.364635,-0.403404 0.720189,-0.81065 1.0822,-1.21545 0.451777,-0.716347 0.84837,-1.56053 1.42553,-2.21261 0.40061,-0.454921 1.06247,-0.912636 1.6578,-1.37437 0.425757,-0.516043 0.845576,-1.03767 1.26435,-1.5593 0.0220038,-0.372494 0.145819,-0.334947 0.285002,-0.357126 7.92086,-9.93456 14.3046,-20.8513 19.0276,-32.4548 -0.119449,-0.243265 -0.347696,-0.381225 -0.816063,-0.278366zm-75.4519 -118.776c-0.289368,0.464351 -0.173761,0.947388 -0.486879,1.46029 -0.176555,0.289368 -0.774675,0.652431 -0.973757,0.973757 -0.29059,0.466097 -0.173935,0.944244 -0.486529,1.46029 -0.175507,0.289368 -0.774675,0.653654 -0.973757,0.973408 -0.639509,1.02947 -1.04326,1.71228 -1.46029,2.43404 -0.617505,1.06527 -0.938656,1.75245 -1.46029,2.43422 -0.703774,0.920494 -1.02108,1.67421 -1.46029,2.43352 -0.567385,0.980568 -1.00973,1.7067 -1.46029,2.43422 -0.182143,0.29321 -0.777993,0.645271 -0.973932,0.973408 -0.294782,0.491245 -0.23366,1.05304 -0.486879,1.46064 -0.183191,0.293385 -0.781311,0.64108 -0.973408,0.973408 -0.285002,0.495087 -0.253044,1.05426 -0.486879,1.46029 -0.57437,0.99157 -1.02335,1.67753 -1.46029,2.43404 -0.572798,0.99157 -1.02335,1.67718 -1.46029,2.4337 -0.262998,0.453349 -0.771881,0.62449 -0.973757,0.973757 -0.475528,0.822001 -0.553589,2.14869 -0.973408,2.92057 -0.161187,0.293385 -0.742717,0.574545 -0.973757,0.973932 -0.276445,0.478147 -0.432568,0.784105 -0.486529,1.46029 2.63994,5.53676 5.0291,11.4268 7.30196,16.5504 0.814841,1.83889 1.5951,3.96698 2.4337,5.84167 0.108797,0.242042 0.363063,-0.00279414 0.486879,0.486879 0.0709013,0.286225 -0.11683,0.703774 0,0.973408 0.101637,0.236454 0.84121,0.684389 0.973408,0.973757 0.691375,1.50884 0.903904,3.34878 1.46064,4.38086 0.147391,0.272429 0.828637,0.647018 0.973408,0.973757 0.117005,0.265443 -0.0710759,0.688406 0,0.973408 0.0906349,0.363063 0.447761,0.376859 0.486879,0.486879 0.272429,0.770484 0.166775,1.2282 0.486529,1.94717 0.107225,0.243265 0.845576,0.67461 0.973757,0.973408 0.115433,0.269634 -0.072473,0.687184 0,0.973932 0.102859,0.414231 0.411612,0.312594 0.486879,0.486355 0.406023,0.93202 0.595326,2.05457 0.973408,2.9211 0.842957,1.93302 2.12372,3.67866 2.43404,5.84115 6.45062,0.903904 11.8622,2.2409 17.5243,3.40745 3.9792,0.819207 7.82027,1.6192 11.6828,2.43404 5.93335,1.25177 11.741,2.52712 17.5243,3.89433 0.162759,-1.12516 1.42711,-1.7776 1.46029,-2.43404 0.0361492,-0.699757 0.940228,-0.813618 0.973757,-1.46029 0.0291638,-0.562146 0.314166,-0.21672 0.486529,-0.486879 0.588516,-0.916652 0.542412,-1.47845 0.973757,-2.4337 0.0709013,-0.157345 0.852387,-0.306307 0.973408,-0.486879 0.150185,-0.22388 -0.112813,-0.726127 0,-0.972186 0.0709013,-0.160139 0.853959,-0.308752 0.973757,-0.488101 0.148613,-0.22388 -0.112813,-0.724555 0,-0.973757 0.0709013,-0.157345 0.852387,-0.307181 0.973408,-0.486529 0.148963,-0.224404 -0.111242,-0.724555 0,-0.973757 0.072473,-0.161362 0.853959,-0.301592 0.973757,-0.486879 0.387861,-0.604756 0.144247,-1.32669 0.486529,-1.94717 -0.031958,0.0583277 0.475877,-0.477099 0.486879,-0.486529 0.391005,-0.40777 0.577164,-1.04606 0.973757,-1.46029 0.426979,-0.446713 0.621347,-0.908444 0.973408,-1.46081 0.347696,-0.546429 0.634444,-0.927654 0.973408,-1.46029 0.349267,-0.546429 0.63427,-0.927654 0.973757,-1.46029 0.944244,-1.48107 1.72171,-2.89019 1.94717,-4.38086 0.4172,-2.76637 -0.343679,-6.19478 -0.973757,-9.73583 -1.62427,-9.13194 -4.44198,-17.5854 -7.30178,-24.8263 -0.549223,-1.39358 -0.902507,-2.65478 -1.46029,-3.89398 -0.318183,-0.707965 -0.943022,-1.37699 -0.973408,-1.94717 -0.0544857,-1.01829 -1.62863,-3.1476 -1.94717,-3.40745 -0.1432,-0.117179 0.0834749,-0.797203 0,-0.973757 -0.0291638,-0.0611218 -0.429774,0.0461033 -0.486879,0 -0.151407,-0.125387 0.102859,-0.795631 0,-0.973408 -0.0792837,-0.135341 -0.835971,-0.37424 -0.973408,-0.486879 -0.158567,-0.130975 0.123641,-0.798425 0,-0.973408 -0.254791,-0.360444 -0.940402,-0.346648 -0.973932,-0.973757 -0.0291638,-0.552366 -0.34333,-0.23104 -0.486355,-0.487053 -0.367429,-0.659068 -0.179873,-1.27657 -0.487053,-1.94717 -0.0275921,-0.0595501 -0.431171,0.0461033 -0.486879,0 -0.143025,-0.116655 0.0836495,-0.796679 0,-0.973408 -0.0291638,-0.0611218 -0.429599,0.045754 -0.486879,0 -0.161187,-0.130801 -0.382448,-1.29613 -0.486529,-1.46029 -0.347696,-0.546778 -0.496658,-0.582578 -0.973757,-0.973757 -0.141453,-0.116655 0.0836495,-0.796679 0,-0.973408 -0.0275921,-0.0611218 -0.429599,0.045754 -0.486529,0 -0.159964,-0.132023 -0.382797,-1.29631 -0.486879,-1.46029 -0.670244,-1.05304 -0.723333,-1.3452 -1.46029,-1.94717 -0.161187,-0.132023 0.129404,-0.801045 0,-0.973757 -0.503469,-0.666228 -3.23666,-2.91237 -3.40745,-2.92057 -0.549572,-0.0291638 -0.233835,-0.347696 -0.486879,-0.486879 -1.79139,-0.97498 -4.36305,-1.79104 -6.81491,-2.4337 -7.76631,-2.03798 -18.0877,-2.44959 -25.8,-3.40745 -1.41576,1.1098 -2.04409,2.98327 -2.92057,4.38086 -0.184937,0.294782 -0.791265,0.635492 -0.973408,0.973757 -0.287796,0.536475 -0.221086,1.02894 -0.486879,1.46029 -0.180571,0.291813 -0.773103,0.649288 -0.973408,0.973408zm-108.553 0.486879c-1.07941,0.673038 -2.99584,0.749528 -3.89433,0.973408 -1.17249,0.293734 -3.80125,1.31447 -4.38121,1.46064 -6.13052,1.53241 -11.6716,3.16943 -18.0112,4.38086 -2.91079,5.16427 -5.66616,10.4812 -8.54762,15.6734 10.919,16.8565 21.9899,33.968 25.0985,38.8467l34.0752 0c1.55337,-9.31845 3.5297,-18.2125 5.35462,-27.2598 -9.45083,-11.3201 -19.1919,-22.3479 -28.7206,-33.5883 -0.487927,0.00122244 -0.579784,-0.395021 -0.973408,-0.486879zm7.78849 -41.8635c1.92621,0.572798 4.28219,0.848021 6.32803,1.45994 0.139183,0.0420867 0.0836495,0.38629 0.486879,0.486879 0.304736,0.0759657 0.671816,-0.0836495 0.973757,0 1.67561,0.463652 3.38789,1.5139 4.86774,1.46064 1.22663,-0.0441823 1.94734,-0.77939 2.4337,-0.973757 0.119973,-0.047675 0.35765,0.00663608 0.487053,0 0.49107,-0.0260204 0.304736,-0.422264 0.486879,-0.486879 1.44754,-0.51028 2.98746,-0.56494 4.38086,-0.973059 0.0473257,-0.0146692 -0.0403404,-0.446364 0,-0.486879 0.247456,-0.246757 1.58288,0.0808554 1.94717,0 0.040515,-0.00908095 -0.0363238,-0.451079 0,-0.486879 0.253393,-0.254267 1.57572,0.0930798 1.94717,0 0.0433092,-0.0110019 -0.0373716,-0.449158 0,-0.487403 0.485656,-0.484783 1.48666,0.0749179 1.94717,-0.486879 0.101288,-0.124165 1.27657,0.0103034 1.46029,0 0.414755,-0.0216546 0.402181,-0.468368 0.486879,-0.486006 1.38537,-0.296179 2.85247,-0.226325 4.38086,-0.486879 1.39969,-0.239423 2.91272,-0.717221 4.38138,-0.973932 1.52839,-0.26684 3.34074,-0.212878 4.86774,-0.486879 1.66059,-0.297576 2.96388,-0.860595 4.38121,-0.973408 7.19735,-0.574021 17.5949,-0.318881 22.8789,0.487053 2.54092,0.386988 4.59776,0.635841 6.81508,0.973234 3.27543,0.499627 3.77453,0.44357 5.84115,-0.973234 0.451079,-0.308403 0.599692,-0.687184 0.973757,-0.973932 0.418772,-0.320453 1.00135,-0.158043 1.46029,-0.486879 0.6912,-0.495087 1.31167,-1.47216 1.94717,-1.94682 0.425757,-0.318008 0.993142,-0.160314 1.46029,-0.486879 0.406198,-0.28343 0.559177,-1.1662 0.973408,-1.46029 0.406547,-0.288495 1.10159,-0.264046 1.46081,-0.486879 0.287796,-0.17865 0.66745,-0.757386 0.973234,-0.973757 0.834749,-0.589389 1.2771,-0.670943 1.94734,-0.973059 0.151757,-0.0689803 0.31696,-0.853086 0.486879,-0.974107 0.448983,-0.319754 1.06911,-0.18808 1.46029,-0.486879 0.349267,-0.267015 0.557431,-0.679674 0.973408,-0.973059 0.54119,-0.381225 1.2406,-0.692597 1.7748,-1.12761 -13.6398,-4.69573 -28.1043,-7.14811 -42.9402,-7.14811 -13.5827,0 -26.8566,2.05771 -39.473,6.0088 -1.21266,0.435187 -2.40715,0.870025 -3.5758,1.29316 -2.38637,0.863738 -4.72454,1.89111 -6.69511,2.40139 -1.26557,0.516043 -2.52311,1.04833 -3.77209,1.60384 -0.278017,0.1549 -0.521631,0.29321 -0.728572,0.375637 -0.225452,0.0902856 -0.431345,0.170268 -0.626062,0.245186 -2.69669,1.23798 -5.35305,2.56816 -7.96504,3.99021 -0.0516916,0.0536125 -0.107225,0.104955 -0.171141,0.146343 -1.24496,0.793186 -2.77737,1.22086 -3.40745,2.4337 3.15284,1.2048 8.05568,2.62282 11.1959,3.40693 0.322898,0.0808554 0.426979,0.46959 0.486879,0.487403z"/>
  <polygon fill="#F6CA00" points="181.344,354.759 262.534,354.759 222.001,291.143 261.919,228.681 182.204,228.681 142.812,166.855 103.811,228.681 23.699,228.681 64.017,291.764 24.2793,354.759 104.277,354.759 142.812,415.055 "/>
  <path fill="#272060" d="M95.1224 300.234c4.85866,0 8.7977,-3.93851 8.7977,-8.79805 0,-4.85988 -3.93904,-8.79839 -8.7977,-8.79839 -4.85901,0 -8.79874,3.93851 -8.79874,8.79839 0,4.85901 3.93974,8.79805 8.79874,8.79805zm77.3348 41.392c0,0 0.292162,-1.6578 0.292162,-4.21251 0,-2.55524 0,-58.1071 0,-58.1071l-12.6566 0c0,0 0.183715,47.9832 0.183715,51.2932 0,3.31018 -0.299148,5.05984 -0.299148,5.05984l-9.42568 12.5981c0,0 -0.936037,1.63265 -4.15296,1.63265 -3.21553,0 -28.1698,0 -28.1698,0l25.818 38.4577 28.4103 -46.7218zm-36.5424 -72.4154c0,0 1.29945,1.71176 1.29945,4.51166l0 70.7745 15.5768 -20.3632 0 -53.1028 37.9696 0c0,0 4.86774,3.4216 4.86774,8.64262 0,5.2226 0,31.2741 0,31.2741l-15.5772 0 0 30.1804 55.4935 0 -30.1807 -50.1372 29.6938 -48.1931 -65.7159 0 -10.6775 18.3282c-0.595326,1.01916 -2.02243,1.1346 -2.77353,0.22388l-15.2696 -18.552 -20.4444 0 15.7378 26.413zm-24.5004 -25.9266l-17.5247 27.2603 16.5513 0 0 39.9176 -41.3767 0 -19.4715 30.666 80.3196 0 0 -30.666 -6.32855 0 0 -46.9817 -12.1695 -20.1962zm-43.3243 27.2603l8.27572 0 -4.86774 6.32803 6.81491 9.25035 10.2225 -15.0918 0 -28.2332 -37.9697 0 17.5243 27.7467zm100.278 -37.4827l-11.1959 18.9862c0,0 -11.4158,-16.5521 -13.6303,-16.5521 -2.21401,0 -26.7729,0 -26.7729,0l26.2864 -42.3504 25.3128 39.9164z"/>
  <polygon fill="#F6CA00" points="121.424,90.0146 137.959,103.079 138.028,103.016 126.084,85.7633 132.989,79.4641 159.464,103.007 154.182,107.826 135.837,90.2128 135.768,90.2764 140.797,97.4536 149.831,111.794 145.862,115.416 131.972,105.252 125.817,100.239 125.376,99.7564 125.307,99.8187 141.649,119.259 136.126,124.297 114.657,96.1877 "/>
  <path fill="#F6CA00" d="M158.623 76.9031l-3.7679 -3.8498 -0.0749179 0.0546603 2.51892 4.75423 4.29616 8.48545 3.97466 -2.87761 -6.94693 -6.56693zm-5.94139 -13.4679l27.5146 23.5811 -6.0198 4.35711 -4.53925 -4.0398 -5.71663 4.1376 2.45919 5.54759 -5.60225 4.05587 -14.0402 -33.3367 5.94436 -4.3028z"/>
  <path fill="#F6CA00" d="M185.254 51.9172c-0.915081,0.0721237 -1.75681,0.216895 -2.59383,0.509406 -5.78038,2.01702 -6.46337,8.14544 -4.67739,13.2636 1.72451,4.94196 6.36435,10.153 12.0998,8.15155 0.83894,-0.293035 1.59947,-0.806284 2.34655,-1.36371l2.16965 6.22115c-0.831431,0.73643 -1.78441,1.26749 -2.84304,1.63614 -9.48663,3.31053 -17.7244,-3.41653 -20.7732,-12.1526 -2.87884,-8.25127 -0.364286,-18.6322 8.59268,-21.7574 1.14595,-0.400086 2.32682,-0.56494 3.56864,-0.552716l2.1101 6.0446z"/>
  <path fill="#F6CA00" d="M207.232 42.6705c-0.916652,0.0284653 -1.76345,0.134119 -2.61462,0.38594 -5.86926,1.74022 -6.84145,7.82935 -5.30066,13.0263 1.48701,5.0181 5.87503,10.4436 11.6996,8.71649 0.851165,-0.252695 1.63579,-0.728572 2.40767,-1.2502l1.87347 6.31702c-0.866532,0.695566 -1.84431,1.18035 -2.91813,1.49975 -9.63419,2.85596 -17.5437,-4.2539 -20.1737,-13.1253 -2.48416,-8.37805 0.520059,-18.6282 9.61446,-21.3252 1.16585,-0.345425 2.35214,-0.453698 3.59134,-0.382448l1.82056 6.13768z"/>
  <path fill="#F6CA00" d="M229.88 46.2526l-1.50045 -5.17335 -0.0918573 0.0122244 -0.0291638 5.37994 -0.225103 9.50898 4.86337 -0.656972 -3.0168 -9.07082zm1.1311 -14.6769l13.0974 33.7873 -7.3657 0.994364 -2.08914 -5.70668 -6.99321 0.944594 -0.457715 6.05053 -6.8535 0.924511 3.39051 -36.0123 7.2714 -0.982314z"/>
  <path fill="#F6CA00" d="M256.653 49.7386l0 9.53325c2.80392,0.140755 4.43954,-1.91573 4.43954,-4.86023 0,-2.75747 -1.68137,-4.76645 -4.43954,-4.67302zm0 -14.0194l0 8.59844c2.61741,0 4.15855,-1.77533 4.15855,-4.43884 0,-2.57078 -1.49504,-4.29966 -4.15855,-4.1596zm-6.96369 29.3947l0 -35.236 6.82451 0c2.70962,0 5.04744,0.0930798 7.28921,1.91608 2.33677,1.86876 3.59833,5.00029 3.59833,7.94409 0,3.13118 -1.16865,5.51441 -3.78449,7.29043 2.897,1.40161 4.34471,5.14017 4.34471,8.17792 0.000349267,6.96317 -5.13912,9.90749 -11.4963,9.90749l-6.77596 0z"/>
  <polygon fill="#F6CA00" points="284.311,30.6744 281.792,65.82 274.848,65.3228 277.365,30.1769 "/>
  <polygon fill="#F6CA00" points="334.396,45.9391 332.218,52.1081 327.018,50.2723 317.468,77.3295 310.901,75.0118 320.45,47.9555 315.296,46.1356 317.474,39.9656 "/>
  <polygon fill="#F6CA00" points="351.534,54.6277 348.61,60.4807 342.298,57.327 338.873,64.1838 344.433,66.9608 341.51,72.8135 335.949,70.0365 332.4,77.1443 338.796,80.3388 335.871,86.1915 323.247,79.8851 338.991,48.3627 "/>
  <polygon fill="#F6CA00" points="362.57,60.9727 347.8,85.5737 354.051,89.3253 350.685,94.9347 338.464,87.5994 356.6,57.389 "/>
  <polygon fill="#F6CA00" points="371.249,88.2129 367.54,93.1997 358.166,86.225 361.875,81.2394 "/>
  <path fill="#F6CA00" d="M381.952 94.8437l2.96633 -4.49612 -0.0707266 -0.0626935 -4.1128 3.46753 -7.38543 5.99517 3.65404 3.27595 4.94859 -8.17984zm11.9065 -8.65694l-17.2253 31.8811 -5.53414 -4.95995 2.99043 -5.29245 -5.25578 -4.71039 -4.90005 3.57615 -5.15012 -4.61697 29.6104 -20.7753 5.46464 4.89778z"/>
  <path fill="#F6CA00" d="M407.518 101.818l-10.9361 13.576c-1.23361,1.69831 -2.6939,3.09957 -4.04015,4.64927l0.0555335 0.0742193c1.86526,-0.945118 3.55065,-2.04741 5.52733,-2.84426l15.9737 -6.78015 4.40618 5.80762 -33.9739 13.5163 -3.44657 -4.5417 21.9139 -29.4136 4.52004 5.95623z"/>
  <polygon fill="#F6CA00" points="424.569,126.325 394.816,145.201 391.084,139.321 420.839,120.446 "/>
  <path fill="#F6CA00" d="M429.856 136.838l-13.4573 11.0796c-1.55214,1.41296 -3.266,2.48801 -4.89882,3.73314l0.0392926 0.0831256c2.01894,-0.546429 3.89136,-1.28478 5.98994,-1.66461l17.0153 -3.40344 3.13782 6.58002 -36.0082 6.3516 -2.45343 -5.14453 27.4171 -24.364 3.21832 6.74907z"/>
  <polygon fill="#F6CA00" points="451.913,201.421 450.898,194.511 422.657,189.397 442.916,186.425 442.916,190.712 450.34,190.703 448.611,178.918 413.692,184.04 414.547,190.588 414.651,190.571 415.507,196.404 426.081,197.862 426.083,197.952 416.143,199.961 417.063,206.554 429.286,204.828 429.286,198.303 "/>
  <path fill="#F6CA00" d="M424.418 229.841l-6.32803 0.301592 -0.809427 -18.5939c0,0 21.8315,-1.03732 26.6936,-1.26941 4.86425,-0.23104 8.31431,3.56707 8.31431,3.56707l0.637238 14.6385 -6.32977 0.30037 -0.536475 -12.3393 -22.1923 1.05426 0.550795 12.3408z"/>
  <polygon fill="#F6CA00" points="414.037,253.296 416.775,235.446 445.138,239.798 445.519,237.316 452.346,238.364 449.227,258.695 442.4,257.648 444.066,246.784 422.532,243.481 420.865,254.343 "/>
  <polygon fill="#F6CA00" points="412.108,263.022 413.428,256.949 428.295,260.159 426.977,266.233 "/>
  <polygon fill="#F6CA00" points="396.938,298.584 404.782,280.383 437.476,294.476 434.679,300.967 408.329,289.609 406.079,294.826 432.43,306.184 428.638,314.981 422.296,312.246 423.288,309.941 "/>
  <path fill="#F6CA00" d="M393.775 303.621l-7.14741 11.1001 -3.01243 -1.94001 -3.68302 5.72048 9.35198 6.02207 7.10707 -11.0389c17.4672,11.3367 22.0124,17.7566 20.9973,19.3367l3.76929 -5.85529c1.13198,-1.75804 -4.60946,-9.5006 -27.3827,-23.345z"/>
  <polygon fill="#F6CA00" points="387.533,345.257 383.159,340.84 393.272,330.811 397.645,335.229 "/>
  <path fill="#F6CA00" d="M383.316 368.602l5.68031 -3.98619 -11.7553 -7.71776c-0.271206,-0.254267 -0.6079,-0.835797 -0.337916,-2.09595l1.32547 -4.9816c0.369874,-1.38973 -1.32984,-3.43557 -1.32984,-3.43557l-7.85537 -11.288 -5.81513 4.15296 7.85852 11.2866c0.396244,0.741495 0.450206,1.78161 0.415628,2.59401l-14.4492 -9.48663 -5.67996 3.98584 11.4879 7.54225 0.279589 0.183715c0.271206,0.254616 0.609122,0.835797 0.34106,2.09578l-1.32826 4.98335c-0.368652,1.38816 1.33106,3.43539 1.33106,3.43539l7.85642 11.2881 5.81251 -4.15454 -7.85694 -11.2866c-0.396244,-0.741145 -0.451952,-1.78161 -0.4172,-2.59366l14.4366 9.47842z"/>
  <polygon fill="#F6CA00" points="328.731,361.073 344.084,351.565 359.19,375.962 361.325,374.64 364.96,380.514 347.472,391.343 343.837,385.469 353.181,379.684 341.711,361.161 332.368,366.947 "/>
  <polygon fill="#F6CA00" points="318.835,366.056 324.164,362.857 332.012,375.886 326.685,379.088 "/>
  <polygon fill="#F6CA00" points="297.846,377.859 313.456,368.778 327.883,393.582 330.054,392.32 333.527,398.291 315.745,408.634 312.274,402.663 321.773,397.135 310.819,378.304 301.318,383.829 "/>
 </g>
</svg>
