<svg xmlns="http://www.w3.org/2000/svg" xml:space="preserve" overflow="visible" width="200" height="279.23" viewBox="0 0 200 279.23" version="1.1" enable-background="new 0 0 200 279.23">
<title>PAOK</title>
<path d="M100,266.75c-23.839-7.973-42.05-18.795-55.64-33.058-12.836-13.471-21.571-30.105-26.707-50.854-10.123-40.904-5.316-93.545,1.649-153.13,16.037-8.789,47.295-17.855,80.698-17.855s64.661,9.065,80.696,17.853c6.967,59.585,11.772,112.23,1.65,153.13-5.135,20.748-13.87,37.383-26.706,50.854-13.59,14.27-31.8,25.09-55.64,33.06" fill="#FFF"/>
<path d="M100,16.09c31.386,0,60.719,8.124,76.749,16.318,6.777,58.258,11.316,109.7,1.487,149.41-4.954,20.015-13.347,36.027-25.662,48.95-12.847,13.483-30.065,23.807-52.574,31.509-22.508-7.702-39.727-18.025-52.574-31.509-12.314-12.923-20.708-28.936-25.662-48.95-9.829-39.717-5.289-91.156,1.488-149.41,16.019-8.197,45.352-16.32,76.738-16.32m0-8.468c-33.724,0-67.447,9.313-84.652,19.466-14.821,126.21-18.208,210.46,84.652,244.12,102.86-33.662,99.472-117.91,84.653-244.12-17.2-10.155-50.93-19.468-84.65-19.468"/>
<path d="M159.35,136.88c1.482-15.878-14.926-20.642-14.926-20.642,6.669,6.14,2.858,22.442,1.905,25.088-0.952,2.646-2.435,7.093,0,8.786,1.96,1.34,11.55,2.64,13.03-13.24"/>
<path d="M147.18,166.62c-1.481,4.764-6.139,11.327-6.139,11.327,8.68-0.953,11.644-3.705,14.396-8.469s4.011-21.912,4.011-21.912c-7,4.13-10.79,14.29-12.27,19.05"/>
<path d="M139.03,160.38c-2.753,8.892-0.636,17.572-0.636,17.572s8.998-14.396,8.998-20.43c0-6.03-5.61-6.03-8.36,2.86"/>
<path d="M129.82,186.63c7.834-8.892,3.388-16.514,3.388-16.514-1.481,3.176-6.986,8.363-13.021,15.509-6.033,7.145,0.424,15.507,0.424,15.507s1.38-5.62,9.21-14.51"/>
<path d="M128.87,194.25c-5.505,11.75,8.749,20.748,8.749,20.748-2.788-15.244,6.812-33.133,6.812-33.133-2.54,0.31-10.06,0.63-15.56,12.38"/>
<path d="M151.94,221.46c-8.686-23.924,1.911-44.354,1.911-44.354-27.84,32.17-1.91,44.35-1.91,44.35"/>
<path d="M100,194.76c0.011,0.006,0.021,0.013,0.033,0.02v-0.039c28.954-16.518,39.313-43.887,39.313-43.887-7.675-9.15-22.614-15.23-39.313-15.246v-0.002c-0.011,0-0.022,0.001-0.033,0.001s-0.023-0.001-0.034-0.001v0.002c-16.698,0.016-31.638,6.096-39.312,15.246,0,0,10.359,27.369,39.312,43.887v0.039c0.015,0,0.025-0.01,0.037-0.02m17.89-52.48s5.504,1.623,8.962,3.811v19.107s-3.74,6.227-8.962,10.603v-33.522zm-35.783,33.52c-5.222-4.376-8.962-10.603-8.962-10.603v-19.107c3.458-2.188,8.962-3.811,8.962-3.811v33.518zm10.939-35.64s2.633-0.421,6.954-0.424c4.321,0.003,6.954,0.424,6.954,0.424v45.466c-1.332,1.28-6.609,4.481-6.954,4.69-0.344-0.209-5.622-3.41-6.954-4.69v-45.469z"/>
<path d="M122.94,206.43c-8.997-1.481-12.809-12.702-12.809-12.702-2.582,2.995-9.781,6.585-10.13,6.758-0.349-0.173-7.547-3.763-10.129-6.758,0,0-3.811,11.221-12.808,12.702,0,0-6.669,12.703-20.642,16.196,0,0,7.798,13.762,25.97,11.433,0,0,4.607,7.91,17.577,7.938v0.002c0.012,0,0.021-0.001,0.033-0.001s0.021,0.001,0.033,0.001v-0.002c12.971-0.027,17.577-7.938,17.577-7.938,18.172,2.329,25.971-11.433,25.971-11.433-13.97-3.5-20.64-16.2-20.64-16.2m-38.786,21.24c1.341-10.304,9.316-20.536,9.316-20.536,1.341,15.17-9.316,20.54-9.316,20.54m15.846,6.32c-0.387-0.809-4.275-9.404,0-19.644,4.28,10.23,0.39,18.83,0,19.64m6.53-26.86s7.975,10.232,9.316,20.536c0,0-10.66-5.37-9.32-20.54"/>
<path d="M53.668,150.11c2.435-1.693,0.953-6.14,0-8.786s-4.764-18.948,1.905-25.088c0,0-16.407,4.764-14.926,20.642,1.482,15.89,11.077,14.59,13.021,13.24"/>
<path d="M58.961,177.95s-4.658-6.563-6.14-11.327-5.27-14.926-12.268-19.054c0,0,1.259,17.148,4.011,21.912,2.752,4.77,5.716,7.52,14.397,8.47"/>
<path d="M52.609,157.52c0,6.034,8.998,20.431,8.998,20.431s2.118-8.681-0.635-17.573c-2.752-8.89-8.363-8.89-8.363-2.86"/>
<path d="M79.814,185.63c-6.034-7.146-11.539-12.333-13.021-15.509,0,0-4.446,7.622,3.387,16.514,7.834,8.892,9.21,14.502,9.21,14.502s6.458-8.36,0.424-15.5"/>
<path d="M71.134,194.25c-5.504-11.75-13.021-12.068-15.561-12.385,0,0,9.6,17.889,6.811,33.133,0,0.01,14.255-8.99,8.75-20.74"/>
<path d="M46.152,177.1s10.598,20.431,1.912,44.354c-0.001,0.01,25.928-12.17-1.912-44.35"/>
<path d="M49.857,101.63c1.125,0.225,6.508-1.204,11.115-0.211,4.062,0.874,7.413,3.99,8.257,6.669l2.435-0.53s2.117,3.917,1.799,7.833l2.541-0.211s0.318,5.398-1.481,7.41h2.54s0.318,4.552-2.752,5.081-6.457-10.479-14.397-10.374c-7.939,0.106-4.34,20.431-0.634,28.793,0,0,11.53-14.385,40.721-14.396,29.192,0.012,40.722,14.396,40.722,14.396,3.705-8.362,7.304-28.687-0.635-28.793s-11.326,10.903-14.396,10.374c-3.069-0.529-2.753-5.081-2.753-5.081h2.541c-1.8-2.011-1.482-7.41-1.482-7.41l2.541,0.211c-0.317-3.917,1.8-7.833,1.8-7.833l2.435,0.53c0.844-2.679,4.194-5.795,8.257-6.669,4.607-0.992,9.99,0.437,11.114,0.211,2.117-0.423,4.129,0.529,4.129,0.529,0.424-8.257-7.198-8.257-7.198-8.257-1.271-7.515-12.385-7.092-16.302-5.292-3.917,1.799-8.681,0.634-8.681,0.634,0.318,3.494,3.812,4.658,3.812,4.658-8.151-0.423-14.608,6.141-14.608,6.141,3.281-0.318,5.293,1.164,5.293,1.164-6.458,1.376-10.798,6.351-10.798,6.351,3.176-0.211,4.234,1.059,4.234,1.059-5.398,1.693-8.257,6.351-8.257,6.351,2.223-0.423,4.022,0.847,4.022,0.847-2.111,0.805-5.456,4.56-5.79,4.938-0.333-0.378-3.679-4.133-5.789-4.938,0,0,1.799-1.27,4.022-0.847,0,0-2.858-4.658-8.257-6.351,0,0,1.059-1.271,4.235-1.059,0,0-4.341-4.975-10.797-6.351,0,0,2.011-1.482,5.292-1.164,0,0-6.457-6.564-14.608-6.141,0,0,3.493-1.164,3.811-4.658,0,0-4.763,1.165-8.68-0.634-3.917-1.8-15.032-2.223-16.302,5.292l-7.198,8.257c0.03,0,2.041-0.95,4.158-0.53m93.873-7.025s-4.422,4.321-5.226-3.619c0,0.001,0.87,4.223,5.23,3.619m-82.23-3.618c-0.804,7.939-5.226,3.619-5.226,3.619,4.36,0.603,5.226-3.619,5.226-3.619"/>
<polygon points="63.289,79.166,53.546,79.166,53.546,56.575,44.981,56.575,45.088,79.166,35.131,79.166,35.131,41.8,63.289,41.8"/>
<path d="M101.08,79.166h28.052v-37.366h-28.052v37.366zm18.2-9.208h-8.672v-19.058h8.672v19.058z"/>
<path d="M87.058,79.165h9.494l-4.462-37.366h-20.129l-4.925,37.366h9.422l0.706-7.665h9.253l0.641,7.665zm-8.987-17.508l0.983-10.672h5.646l0.892,10.672h-7.521z"/>
<polygon points="153.55,79.166,164.64,79.166,155.22,59.94,163.96,41.8,153.34,41.8,147.34,55.44,144.12,55.44,144.12,41.8,134.18,41.8,134.18,79.166,144.12,79.166,144.12,65.335,147.66,65.335"/>
<rect y="27.087" x="85.13" height="9.112" width="2.07"/>
<path d="M97.08,30.099c0,0.54-0.091,1.031-0.272,1.474-0.182,0.442-0.417,0.89-0.707,1.345l-2.118,3.282h-2.514l2.183-3.141,0.025-0.039c-0.091,0.035-0.191,0.06-0.303,0.078-0.112,0.017-0.217,0.025-0.315,0.025-0.388,0-0.756-0.07-1.102-0.212s-0.652-0.344-0.915-0.605c-0.265-0.262-0.475-0.574-0.632-0.939-0.157-0.364-0.235-0.77-0.235-1.216,0-0.515,0.091-0.978,0.271-1.39,0.183-0.412,0.43-0.76,0.744-1.043,0.313-0.283,0.681-0.5,1.102-0.649,0.42-0.15,0.865-0.226,1.336-0.226,0.478,0,0.927,0.075,1.349,0.226,0.42,0.149,0.786,0.366,1.095,0.649s0.554,0.627,0.737,1.031c0.18,0.401,0.271,0.852,0.271,1.35m-2.07-0.026c0-0.395-0.123-0.736-0.368-1.023-0.243-0.288-0.578-0.431-1.001-0.431s-0.762,0.135-1.015,0.406c-0.253,0.27-0.38,0.624-0.38,1.062,0,0.413,0.125,0.753,0.374,1.023,0.25,0.27,0.581,0.406,0.996,0.406,0.416,0,0.751-0.133,1.008-0.399s0.386-0.615,0.386-1.044"/>
<path d="M98.481,36.2v-1.798l3.42-3.213c0.217-0.214,0.39-0.433,0.521-0.656,0.132-0.222,0.197-0.47,0.197-0.744,0-0.326-0.099-0.589-0.297-0.791-0.197-0.201-0.463-0.302-0.793-0.302-0.347,0-0.63,0.127-0.85,0.38-0.219,0.253-0.349,0.585-0.39,0.998l-1.996-0.283c0.049-0.463,0.171-0.876,0.365-1.238s0.44-0.67,0.738-0.925c0.297-0.255,0.639-0.449,1.022-0.583,0.385-0.134,0.791-0.202,1.221-0.202,0.405,0,0.798,0.056,1.178,0.167,0.381,0.112,0.719,0.283,1.018,0.516,0.297,0.232,0.534,0.523,0.713,0.875,0.176,0.352,0.265,0.764,0.265,1.235,0,0.326-0.041,0.621-0.123,0.882-0.083,0.262-0.196,0.505-0.341,0.728s-0.311,0.431-0.496,0.624-0.378,0.385-0.576,0.573l-2.033,1.879h3.583v1.878h-6.349z"/>
<path d="M113.08,33.136c0,0.515-0.092,0.979-0.271,1.391-0.183,0.412-0.43,0.759-0.742,1.042-0.314,0.284-0.682,0.5-1.102,0.651-0.421,0.15-0.866,0.225-1.337,0.225-0.479,0-0.926-0.075-1.343-0.225-0.416-0.151-0.782-0.367-1.095-0.651-0.313-0.283-0.561-0.626-0.743-1.029-0.181-0.403-0.271-0.854-0.271-1.352,0-0.541,0.091-1.032,0.271-1.474,0.184-0.442,0.418-0.891,0.705-1.345l2.119-3.282h2.515l-2.158,3.115-0.037,0.064c0.083-0.035,0.182-0.06,0.297-0.078,0.116-0.017,0.223-0.025,0.321-0.025,0.38,0,0.746,0.07,1.096,0.212s0.655,0.344,0.915,0.605c0.261,0.262,0.469,0.575,0.625,0.94,0.14,0.365,0.22,0.771,0.22,1.216m-2.07,0.052c0-0.412-0.124-0.752-0.373-1.023-0.25-0.27-0.581-0.405-0.996-0.405-0.416,0-0.752,0.133-1.009,0.398-0.257,0.267-0.386,0.614-0.386,1.043,0,0.395,0.124,0.734,0.373,1.017,0.249,0.284,0.585,0.425,1.009,0.425,0.415,0,0.749-0.134,1.003-0.4,0.26-0.265,0.39-0.618,0.39-1.055"/>
<line y2="32.392" x1="115.74" x2="127.95" stroke="#000" stroke-miterlimit="10" y1="32.392" stroke-width="2.782" fill="none"/>
<line y2="32.392" x1="70.468" x2="82.677" stroke="#000" stroke-miterlimit="10" y1="32.392" stroke-width="2.782" fill="none"/>
<path d="M100,7.622c33.724,0,67.448,9.313,84.653,19.466,0.001,0.003,0.001,0.008,0.001,0.012l7.128-4.655-3.256-1.921c-9.467-5.586-23.035-10.694-38.204-14.382-16.52-4.018-33.92-6.142-50.32-6.142-16.396,0-33.795,2.124-50.321,6.141-15.17,3.688-28.738,8.795-38.205,14.382l-3.255,1.921v0.004l7.174,4.613c17.216-10.142,50.911-19.439,84.607-19.439" fill="#C7A377"/>
<path d="M15.348,27.087c0.014-0.008,0.03-0.017,0.044-0.025l-7.173-4.613-0.44,3.749c-7.237,61.628-12.355,116.16-1.633,159.49,11.542,46.642,40.611,76.119,91.484,92.768l2.37,0.775v-8.02c-102.86-33.67-99.473-117.92-84.652-244.13" fill="#AA8447"/>
<path d="M192.22,26.198l-0.44-3.754-7.128,4.656c14.82,126.21,18.21,210.45-84.65,244.11v8.02l2.371-0.775c50.872-16.648,79.941-46.126,91.484-92.768,10.73-43.33,5.61-97.864-1.63-159.49" fill="#935E1D"/>
</svg>
